<svg width="24" height="24" viewBox="0 0 24 24" fill="none" xmlns="http://www.w3.org/2000/svg">
<g id="free-icon-font-phone-call-5074539 1" clip-path="url(#clip0_10_568)">
<g id="Vector">
<path d="M14.2002 16.261C11.2886 15.0282 8.97325 12.7075 7.7472 9.793L11.1472 6.387L4.8872 0.122L1.7162 3.292C1.1662 3.84514 0.731342 4.50186 0.436795 5.22416C0.142247 5.94645 -0.00614821 6.71998 0.000195101 7.5C0.000195101 14.748 9.25219 24 16.5002 24C17.2801 24.0068 18.0536 23.8586 18.7758 23.5641C19.498 23.2695 20.1545 22.8344 20.7072 22.284L23.8782 19.113L17.6132 12.848L14.2002 16.261ZM19.2922 20.87C18.925 21.234 18.489 21.5214 18.0097 21.7154C17.5304 21.9094 17.0172 22.0061 16.5002 22C10.2672 22 2.0002 13.733 2.0002 7.5C1.99431 6.98283 2.09116 6.46964 2.28514 5.99019C2.47911 5.51074 2.76635 5.07458 3.1302 4.707L4.8872 2.95L8.3242 6.387L5.38919 9.322L5.63419 9.936C6.35544 11.8653 7.48296 13.6171 8.94035 15.0725C10.3977 16.528 12.1509 17.6533 14.0812 18.372L14.6872 18.603L17.6132 15.676L21.0502 19.113L19.2922 20.87ZM14.0002 2V0C16.6515 0.0029116 19.1933 1.05742 21.068 2.93215C22.9428 4.80688 23.9973 7.34873 24.0002 10H22.0002C21.9978 7.879 21.1542 5.84555 19.6544 4.34578C18.1546 2.846 16.1212 2.00238 14.0002 2ZM14.0002 6V4C15.591 4.00159 17.1162 4.63424 18.2411 5.75911C19.366 6.88399 19.9986 8.40919 20.0002 10H18.0002C18.0002 8.93913 17.5788 7.92172 16.8286 7.17157C16.0785 6.42143 15.0611 6 14.0002 6Z" fill="#D1D1D1"/>
<path d="M15.3944 19.31L17.6133 17.0903L19.6358 19.1128L18.5882 20.1598C18.5877 20.1603 18.5873 20.1607 18.5868 20.1611C18.3141 20.4312 17.9904 20.6444 17.6345 20.7885C17.2781 20.9327 16.8966 21.0046 16.5121 21.0001V21H16.5002C13.7682 21 10.384 19.1444 7.61993 16.3803C4.85581 13.6162 3.0002 10.232 3.0002 7.5H3.00026L3.00013 7.48861C2.99575 7.10382 3.06781 6.72198 3.21214 6.36524C3.35618 6.00923 3.56933 5.68529 3.83927 5.41214L4.8872 4.36421L6.90998 6.387L4.68209 8.61489L4.21625 9.08073L4.46041 9.69261L4.70141 10.2966C5.473 12.356 6.67753 14.226 8.2337 15.7801C9.79154 17.3359 11.6654 18.5389 13.7285 19.3077L14.331 19.5374L14.9364 19.7682L15.3944 19.31ZM-0.489172 4.84655C-0.833126 5.69 -1.00667 6.59319 -0.999804 7.50402C-0.998121 11.504 1.51721 15.8672 4.82509 19.1751C8.13288 22.4829 12.496 24.9982 16.4959 25C17.4067 25.0074 18.3101 24.834 19.1535 24.49C19.9984 24.1454 20.7663 23.6364 21.4128 22.9926L21.4143 22.9911L24.5853 19.8201L25.2924 19.113L24.5853 18.4059L18.3203 12.1409L17.6132 11.4338L16.9061 12.1409L13.9848 15.0622C11.7959 13.9769 10.0243 12.2007 8.94444 10.0091L11.8549 7.09348L12.5605 6.38666L11.8546 5.68018L5.59458 -0.584824L4.88759 -1.29238L4.1802 -0.585218L1.0092 2.58478L1.0092 2.58478L1.00708 2.58691C0.363856 3.23381 -0.144701 4.00183 -0.489172 4.84655ZM13.0002 2V2.99888L13.9935 2.99999L13.0002 2.999V4V6V7H14.0002C14.7958 7 15.5589 7.31607 16.1215 7.87868C16.6841 8.44129 17.0002 9.20435 17.0002 10V11H18.0002H20.0002H21.0012L21.0002 10.0179L21.0013 11H22.0002H24.0002H25.0013L25.0002 9.9989C24.997 7.0828 23.8372 4.28704 21.7752 2.22504C19.7132 0.163041 16.9174 -0.996797 14.0013 -0.999999L13.0002 -1.0011V0V2Z" stroke="black" stroke-opacity="0.5" stroke-width="2"/>
</g>
</g>
<defs>
<clipPath id="clip0_10_568">
<rect width="24" height="24" fill="white"/>
</clipPath>
</defs>
</svg>
