<svg width="144" height="137" viewBox="0 0 144 137" fill="none" xmlns="http://www.w3.org/2000/svg">
<g id="Group">
<g id="Group_2">
<path id="Vector" d="M100.696 130.96L53.2847 131.462L57.2295 80.6684C57.2295 80.6684 57.1569 75.9712 55.0637 73.496C52.9706 71.0231 41.1337 43.5895 41.1337 43.5895L48.4609 20.5743L102.887 32.8167L104.423 39.5814V55.1757C104.423 55.1757 103.86 69.5816 99.6949 73.9343L97.44 76.4704L98.1924 88.9027L100.696 130.96Z" fill="#FFD5B4" stroke="black" stroke-width="1.33454" stroke-miterlimit="10"/>
<path id="Vector_2" d="M104.01 43.4161L100.883 43.1489C100.883 43.1489 98.1268 49.4119 94.557 48.9736C90.9872 48.5353 87.7924 46.9906 87.3541 46.0718C87.3541 46.0718 83.9718 47.5016 82.3591 47.361C80.7465 47.2203 77.4579 46.3906 77.2235 45.6077C77.2235 45.6077 74.0287 47.4078 70.194 46.9859C66.3593 46.564 63.413 45.9522 63.4294 45.467C63.4294 45.467 60.4385 47.6915 59.2478 47.4406C59.2478 47.4406 52.4058 55.8812 51.998 56.2562C51.5901 56.6313 51.8878 47.5508 51.8878 47.5508L54.0653 40.3315L65.4475 40.6291L71.6637 40.8635L98.8347 39.2673L104.008 39.9166V43.4161H104.01Z" fill="#FFB46F"/>
<g id="Group_3">
<path id="Vector_3" d="M114.413 27.053H28.9194V41.4261H114.413V27.053Z" fill="#878787" stroke="black" stroke-width="0.800724" stroke-miterlimit="10"/>
<path id="Vector_4" d="M114.413 28.307H28.9194V40.1768H114.413V28.307Z" fill="#706F6F" stroke="black" stroke-width="0.800724" stroke-miterlimit="10"/>
<path id="Vector_5" d="M114.413 30.0368H28.9194V38.4469H114.413V30.0368Z" fill="#575756" stroke="black" stroke-width="0.800724" stroke-miterlimit="10"/>
<path id="Vector_6" d="M114.413 32.0011H28.9194V36.4804H114.413V32.0011Z" fill="#3C3C3B" stroke="black" stroke-width="0.800724" stroke-miterlimit="10"/>
<path id="Vector_7" d="M114.413 33.316H28.9194V35.163H114.413V33.316Z" fill="#3C3C3B" stroke="black" stroke-width="0.800724" stroke-miterlimit="10"/>
<g id="Group_4">
<g id="Group_5">
<path id="Vector_8" d="M33.2416 67.5752H15.58C14.1267 67.5752 12.9501 66.3985 12.9501 64.9453V3.73306C12.9501 2.27981 14.1267 1.10315 15.58 1.10315H33.2416C34.6949 1.10315 35.8715 2.27981 35.8715 3.73306V64.9453C35.8715 66.3985 34.6925 67.5752 33.2416 67.5752Z" fill="#3C3C3B" stroke="black" stroke-width="0.800724" stroke-miterlimit="10"/>
<path id="Vector_9" d="M12.8001 56.7649H6.79022C5.62528 56.7649 4.68066 55.8203 4.68066 54.6553V14.0254C4.68066 12.8604 5.62528 11.9158 6.79022 11.9158H12.8001C12.8821 11.9158 12.9478 11.9814 12.9478 12.0635V56.6172C12.9478 56.6993 12.8821 56.7649 12.8001 56.7649Z" fill="#3C3C3B" stroke="black" stroke-width="0.800724" stroke-miterlimit="10"/>
<path id="Vector_10" d="M4.53293 46.1984H2.02959C1.21156 46.1984 0.548218 45.535 0.548218 44.717V23.7574C0.548218 22.9394 1.21156 22.276 2.02959 22.276H4.53293C4.61497 22.276 4.6806 22.3417 4.6806 22.4237V46.053C4.6806 46.1327 4.61497 46.1984 4.53293 46.1984Z" fill="#3C3C3B" stroke="black" stroke-width="0.800724" stroke-miterlimit="10"/>
</g>
<g id="Group_6">
<path id="Vector_11" d="M110.372 67.472H128.033C129.486 67.472 130.663 66.2954 130.663 64.8421V3.62991C130.663 2.17666 129.486 1 128.033 1H110.372C108.918 1 107.742 2.17666 107.742 3.62991V64.8421C107.742 66.293 108.918 67.472 110.372 67.472Z" fill="#3C3C3B" stroke="black" stroke-width="0.800724" stroke-miterlimit="10"/>
<path id="Vector_12" d="M130.811 56.6594H136.821C137.986 56.6594 138.93 55.7148 138.93 54.5498V13.9198C138.93 12.7549 137.986 11.8103 136.821 11.8103H130.811C130.729 11.8103 130.663 11.8759 130.663 11.9579V56.5117C130.665 56.5937 130.731 56.6594 130.811 56.6594Z" fill="#3C3C3B" stroke="black" stroke-width="0.800724" stroke-miterlimit="10"/>
<path id="Vector_13" d="M139.08 46.0929H141.583C142.402 46.0929 143.065 45.4295 143.065 44.6115V23.6519C143.065 22.8339 142.402 22.1705 141.583 22.1705H139.08C138.998 22.1705 138.932 22.2362 138.932 22.3182V45.9475C138.932 46.0272 138.998 46.0929 139.08 46.0929Z" fill="#3C3C3B" stroke="black" stroke-width="0.800724" stroke-miterlimit="10"/>
</g>
</g>
</g>
<g id="Group_7">
<path id="Vector_14" d="M102.074 26.7412L99.9433 42.0238C99.9433 42.0238 98.0635 47.9727 93.5537 47.2227C89.044 46.4703 87.2274 43.7161 87.729 40.7721C88.2306 37.8281 90.7363 24.1746 90.7363 24.1746C90.7363 24.1746 92.8037 20.4782 96.6852 21.2306C100.567 21.983 102.011 24.4231 102.074 26.7412Z" fill="#FFD5B4" stroke="black" stroke-width="1.33454" stroke-miterlimit="10"/>
<path id="Vector_15" d="M77.8962 20.8392C78.5548 19.8852 80.9199 16.9154 84.6608 17.2834C89.1073 17.7217 90.298 20.8532 90.673 23.2956L87.6751 42.216C87.6751 42.216 84.0959 45.9054 81.9676 45.3428C79.8393 44.7803 75.8288 43.6528 76.457 38.8923C77.0828 34.1317 77.7719 21.0197 77.8962 20.8392Z" fill="#FFD5B4" stroke="black" stroke-width="1.33454" stroke-miterlimit="10"/>
<path id="Vector_16" d="M77.6782 20.4618C77.6782 20.4618 75.9554 14.3816 71.155 14.466C66.3523 14.5504 62.9723 16.9717 62.6793 20.6446C62.3863 24.3176 62.1355 38.6837 62.1355 38.6837C62.1355 38.6837 62.5527 44.4802 67.2289 45.4014C71.9051 46.3249 75.7468 43.9857 76.164 42.0238C76.5812 40.0596 77.6782 20.4618 77.6782 20.4618Z" fill="#FFD5B4" stroke="black" stroke-width="1.33454" stroke-miterlimit="10"/>
<path id="Vector_17" d="M62.3863 19.8923C62.3863 19.8923 61.8847 15.7177 56.0811 15.2981C50.2774 14.8786 47.7718 20.1829 47.7296 23.4808C47.6874 26.7788 47.2701 39.265 47.2701 39.265C47.2701 39.265 48.6906 44.5271 53.6597 44.485C58.6289 44.4428 61.301 43.4419 61.6339 38.9321C61.969 34.4224 62.3863 19.8923 62.3863 19.8923Z" fill="#FFD5B4" stroke="black" stroke-width="1.33454" stroke-miterlimit="10"/>
</g>
<g id="Vector_18">
<path d="M74.7036 58.1197C74.7036 58.1197 69.4415 51.0433 64.3059 51.2308C59.1703 51.4183 51.7165 54.8639 50.0875 57.0555C50.0875 57.0555 57.1029 47.3328 56.8826 45.0311C56.6622 42.7293 54.4238 41.1331 54.4238 41.1331C54.4238 41.1331 61.69 44.5787 62.3932 44.4849C63.0987 44.3912 72.3878 45.2842 73.6582 40.0221C74.9286 34.7599 75.4513 34.0309 74.1786 32.9855C72.9058 31.9401 67.8101 30.9604 66.9123 30.2923C66.0146 29.6243 56.2849 25.6982 55.5559 25.5951C54.827 25.4919 50.5235 24.6551 47.9568 27.7445C45.3879 30.8338 41.5485 39.3728 41.4219 39.7478C41.2953 40.1229 37.3926 48.036 37.3926 48.036C37.3926 48.036 35.9933 51.8567 38.7498 55.6773C41.5063 59.4979 45.1183 62.9224 45.1183 62.9224L55.4739 73.9343" fill="#FFD5B4"/>
<path d="M74.7036 58.1197C74.7036 58.1197 69.4415 51.0433 64.3059 51.2308C59.1703 51.4183 51.7165 54.8639 50.0875 57.0555C50.0875 57.0555 57.1029 47.3328 56.8826 45.0311C56.6622 42.7293 54.4238 41.1331 54.4238 41.1331C54.4238 41.1331 61.69 44.5787 62.3932 44.4849C63.0987 44.3912 72.3878 45.2842 73.6582 40.0221C74.9286 34.7599 75.4513 34.0309 74.1786 32.9855C72.9058 31.9401 67.8101 30.9604 66.9123 30.2923C66.0146 29.6243 56.2849 25.6982 55.5559 25.5951C54.827 25.4919 50.5235 24.6551 47.9568 27.7445C45.3879 30.8338 41.5485 39.3728 41.4219 39.7478C41.2953 40.1229 37.3926 48.036 37.3926 48.036C37.3926 48.036 35.9933 51.8567 38.7498 55.6773C41.5063 59.4979 45.1183 62.9224 45.1183 62.9224L55.4739 73.9343" stroke="black" stroke-width="1.33454" stroke-miterlimit="10"/>
</g>
</g>
<g id="Group_8">
<path id="Vector_19" d="M56.0576 104.842L61.9925 108.812L63.652 100.4L62.7051 95.1751L60.2322 86.9268L59.7259 81.3036L57.246 75.6219L56.4585 73.8124L56.0576 104.842Z" fill="#878787" stroke="#1D1D1B" stroke-width="1.33454" stroke-miterlimit="10"/>
<path id="Vector_20" d="M110.578 94.2305L108.698 98.1238L122.98 106.382H127.239L128.49 103.752L110.578 94.2305Z" fill="#878787" stroke="#1D1D1B" stroke-width="1.33454" stroke-miterlimit="10"/>
<path id="Vector_21" d="M99.9761 73.803C98.0963 75.0547 91.334 75.7133 91.334 75.7133V81.5755L92.7122 82.1029L97.9744 83.6992V80.5676L99.9785 78.7511L99.3526 76.5595L99.9761 73.803Z" fill="#878787" stroke="#1D1D1B" stroke-width="1.33454" stroke-miterlimit="10"/>
<path id="Vector_22" d="M37.3224 51.8027L41.6821 48.622L45.6715 50.5792L46.7544 54.8288L47.6826 58.4689L49.9094 60.616L48.8054 64.9054L37.3364 54.9014L37.3224 51.8027Z" fill="#878787" stroke="#1D1D1B" stroke-width="1.33454" stroke-miterlimit="10"/>
<path id="Vector_23" d="M52.9425 57.2173V53.3333L59.2055 52.4567L64.3411 50.9542L67.7234 52.5833L71.9824 54.0857L74.3615 59.4721L68.3493 58.5955L65.9702 55.839L60.708 61.1012L56.449 57.9697L52.9425 57.2173Z" fill="#878787" stroke="#1D1D1B" stroke-width="1.33454" stroke-miterlimit="10"/>
<path id="Vector_24" d="M101.584 108.672C101.556 109.047 97.1797 115.502 97.1797 115.502L92.0582 115.12L94.2451 117.794L95.2436 121.261L94.6553 124.107L91.5566 121.866L90.0588 126.779L92.3957 127.456L91.0761 129.995L89.7236 131.274L94.7819 131.652L97.379 131.342L100.789 131.094L101.584 108.672Z" fill="#878787" stroke="#1D1D1B" stroke-width="1.33454" stroke-miterlimit="10"/>
<path id="Vector_25" d="M54.356 127.794L55.392 132.664L62.8551 135.686L67.8102 134.15L69.9995 135.414L73.492 134.671L76.3375 135.409L82.0122 135.449C82.0122 135.449 90.2278 135.238 90.8583 135.489C91.4888 135.739 94.4211 135.979 94.1656 134.786C93.9124 133.59 91.8333 127.885 91.8333 127.885L87.5135 128.804L84.0491 128.773L79.8863 130.428C79.8863 130.428 79.9449 130.705 79.4268 130.527C78.9088 130.348 76.9423 129.23 76.9423 129.23C76.9423 129.23 73.2716 130.491 72.7208 130.609C72.17 130.726 69.8096 129.115 69.8096 129.115L65.1217 131.457L55.1482 126.568L54.356 127.794Z" fill="#878787" stroke="#1D1D1B" stroke-width="1.33454" stroke-miterlimit="10"/>
<path id="Vector_26" d="M44.8676 125.117L50.8071 120.148L52.9893 122.03L54.9512 132.988L44.8676 125.117Z" fill="#878787" stroke="#1D1D1B" stroke-width="1.33454" stroke-miterlimit="10"/>
<path id="Vector_27" d="M88.9971 92.2265L87.6493 97.2378L99.0174 98.3653L98.0142 95.8596L94.8827 93.9188L94.1327 90.0981L89.8737 90.724L88.9971 92.2265Z" fill="#878787" stroke="#1D1D1B" stroke-width="1.33454" stroke-miterlimit="10"/>
<path id="Vector_28" d="M47.9921 106.382L56.3857 110.015L59.6415 114.149L57.7616 117.907C57.7616 117.907 56.6342 120.037 56.2592 120.162C55.8841 120.286 52.0002 113.273 51.4986 112.771C50.9993 112.27 47.9921 106.382 47.9921 106.382Z" fill="#878787" stroke="#1D1D1B" stroke-width="1.33454" stroke-miterlimit="10"/>
<path id="Vector_29" d="M24.9486 100.29L25.5393 100.097L31.3172 98.2223L33.0985 101.954L36.4902 100.337L36.809 104.206L38.492 107.15C38.492 107.15 31.3851 109.708 30.7077 110.031C30.0303 110.355 23.0055 114.539 23.0055 114.539L25.4526 109.485L29.2381 107.818L27.2973 106.663L25.3096 105.113L25.3167 107.748L23.3665 101.044L24.9486 100.29Z" fill="#878787" stroke="#1D1D1B" stroke-width="1.33454" stroke-miterlimit="10"/>
<path id="Vector_30" d="M37.0787 76.0157L33.3706 78.7956C33.3706 78.7956 37.6788 89.9692 37.6038 90.4966C37.5288 91.0217 40.529 89.5942 40.529 89.5942L40.0719 86.9221L43.616 85.9869L43.1659 82.8811L38.7078 78.3972L35.527 78.7488L37.0787 76.0157Z" fill="#878787" stroke="#1D1D1B" stroke-width="1.33454" stroke-miterlimit="10"/>
<path id="Vector_31" d="M80.1206 81.5685C80.1206 81.5685 80.798 83.228 80.28 83.6007C79.762 83.9734 75.8875 87.2104 75.8875 87.2104L61.144 73.4444L61.8894 69.3425L66.2046 71.145L67.9696 68.3369L73.9959 68.3065L75.9789 69.3027L76.1922 66.504L77.5892 64.8234L84.3351 72.6498L82.6732 75.8985L84.4124 77.5229L83.6483 78.5237L83.3061 81.4607L81.016 79.323L80.1206 81.5685Z" fill="#878787" stroke="#1D1D1B" stroke-width="1.33454" stroke-miterlimit="10"/>
<path id="Vector_32" d="M75.2124 104.342C75.2124 104.342 74.3194 108.226 75.4937 108.477C76.668 108.728 86.9392 108.477 86.9392 108.477L87.565 106.724L89.0675 104.345C89.0675 104.345 84.9328 104.72 84.0561 104.345C83.1818 103.967 75.2124 104.342 75.2124 104.342Z" fill="#878787" stroke="#1D1D1B" stroke-width="1.33454" stroke-miterlimit="10"/>
<path id="Vector_33" d="M101.605 62.899L91.334 69.3191L98.7245 72.0427L100.853 71.5435L100.103 69.3191L101.605 67.472V62.899Z" fill="#878787" stroke="#1D1D1B" stroke-width="1.33454" stroke-miterlimit="10"/>
<path id="Vector_34" d="M77.6781 44.5201L78.6134 37.5586C78.6134 37.5586 85.9124 39.2696 86.2523 39.5392C86.5945 39.8087 83.245 45.2936 83.245 45.2936L77.6781 44.5201Z" fill="#878787" stroke="#1D1D1B" stroke-width="1.33454" stroke-miterlimit="10"/>
<path id="Vector_35" d="M118.547 84.7094L115.231 85.8861C114.366 87.4518 113.311 89.1817 113.311 89.1817L107.742 88.4082L108.677 81.4466C108.677 81.4466 110.06 81.7701 111.647 82.1592L110.864 79.9863C110.864 79.9863 118.128 78.1346 118.554 78.2167C118.983 78.2987 118.547 84.7094 118.547 84.7094Z" fill="#878787" stroke="#1D1D1B" stroke-width="1.33454" stroke-miterlimit="10"/>
</g>
<path id="Vector_36" d="M56.217 42.4082L58.4085 43.395C58.4085 43.395 58.4554 43.4724 56.9998 43.8286L56.1794 42.4082" fill="#FFB46F"/>
</g>
</svg>
