<svg width="41" height="41" viewBox="0 0 41 41" fill="none" xmlns="http://www.w3.org/2000/svg">
<g clip-path="url(#clip0_204_3355)">
<path d="M20.5 0C15.9708 0.00497398 11.6284 1.80642 8.42577 5.00909C5.2231 8.21176 3.42166 12.5541 3.41669 17.0833C3.41669 26.1068 17.7667 38.4939 19.3964 39.8776L20.5 40.8104L21.6036 39.8776C23.2334 38.4939 37.5834 26.1068 37.5834 17.0833C37.5784 12.5541 35.7769 8.21176 32.5743 5.00909C29.3716 1.80642 25.0293 0.00497398 20.5 0ZM20.5 25.625C18.8106 25.625 17.1592 25.124 15.7545 24.1855C14.3499 23.2469 13.255 21.9129 12.6086 20.3521C11.9621 18.7913 11.7929 17.0739 12.1225 15.4169C12.4521 13.76 13.2656 12.238 14.4602 11.0435C15.6547 9.84889 17.1767 9.03538 18.8336 8.70579C20.4905 8.37621 22.208 8.54536 23.7688 9.19186C25.3296 9.83836 26.6636 10.9332 27.6022 12.3378C28.5407 13.7425 29.0417 15.394 29.0417 17.0833C29.039 19.3479 28.1382 21.5189 26.5369 23.1202C24.9356 24.7215 22.7646 25.6223 20.5 25.625Z" fill="#C53232"/>
<path d="M20.5 22.2083C23.3305 22.2083 25.625 19.9137 25.625 17.0833C25.625 14.2528 23.3305 11.9583 20.5 11.9583C17.6695 11.9583 15.375 14.2528 15.375 17.0833C15.375 19.9137 17.6695 22.2083 20.5 22.2083Z" fill="#C53232"/>
</g>
<defs>
<clipPath id="clip0_204_3355">
<rect width="41" height="41" fill="white"/>
</clipPath>
</defs>
</svg>
