<svg width="538" height="510" viewBox="0 0 538 510" fill="none" xmlns="http://www.w3.org/2000/svg">
<path d="M377.213 488.91L199.583 490.789L214.363 300.486C214.363 300.486 214.09 282.888 206.248 273.614C198.406 264.349 154.058 161.566 154.058 161.566L181.51 75.3373L385.424 121.205L391.177 146.549V204.975C391.177 204.975 389.069 258.948 373.464 275.256L365.015 284.758L367.834 331.337L377.213 488.91Z" fill="#FFD5B4" stroke="black" stroke-width="5" stroke-miterlimit="10"/>
<path d="M389.631 160.916L377.916 159.915C377.916 159.915 367.589 183.38 354.214 181.738C340.839 180.096 328.869 174.309 327.227 170.866C327.227 170.866 314.555 176.223 308.513 175.696C302.471 175.169 290.15 172.061 289.272 169.127C289.272 169.127 277.302 175.872 262.935 174.291C248.568 172.71 237.529 170.418 237.591 168.601C237.591 168.601 226.385 176.935 221.924 175.995C221.924 175.995 196.29 207.618 194.762 209.023C193.234 210.429 194.349 176.408 194.349 176.408L202.507 149.36L245.152 150.475L268.441 151.353L370.241 145.373L389.622 147.805V160.916H389.631Z" fill="#FFB46F"/>
<path d="M428.605 99.6103H108.296V153.461H428.605V99.6103Z" fill="#878787" stroke="black" stroke-width="3" stroke-miterlimit="10"/>
<path d="M428.605 104.309H108.296V148.78H428.605V104.309Z" fill="#706F6F" stroke="black" stroke-width="3" stroke-miterlimit="10"/>
<path d="M428.605 110.79H108.296V142.299H428.605V110.79Z" fill="#575756" stroke="black" stroke-width="3" stroke-miterlimit="10"/>
<path d="M428.605 118.149H108.296V134.931H428.605V118.149Z" fill="#3C3C3B" stroke="black" stroke-width="3" stroke-miterlimit="10"/>
<path d="M428.605 123.075H108.296V129.995H428.605V123.075Z" fill="#3C3C3B" stroke="black" stroke-width="3" stroke-miterlimit="10"/>
<path d="M124.489 251.431H58.318C52.8733 251.431 48.4648 247.022 48.4648 241.578V12.2397C48.4648 6.7949 52.8733 2.38641 58.318 2.38641H124.489C129.934 2.38641 134.342 6.7949 134.342 12.2397V241.578C134.342 247.022 129.925 251.431 124.489 251.431Z" fill="#3C3C3B" stroke="black" stroke-width="3" stroke-miterlimit="10"/>
<path d="M47.9027 210.929H25.3861C21.0215 210.929 17.4824 207.39 17.4824 203.025V50.8008C17.4824 46.4362 21.0215 42.8971 25.3861 42.8971H47.9027C48.2101 42.8971 48.456 43.143 48.456 43.4503V210.376C48.456 210.683 48.2101 210.929 47.9027 210.929Z" fill="#3C3C3B" stroke="black" stroke-width="3" stroke-miterlimit="10"/>
<path d="M16.9292 171.34H7.55014C4.48527 171.34 2 168.855 2 165.79V87.263C2 84.1982 4.48527 81.7129 7.55014 81.7129H16.9292C17.2365 81.7129 17.4824 81.9588 17.4824 82.2662V170.796C17.4824 171.095 17.2365 171.34 16.9292 171.34Z" fill="#3C3C3B" stroke="black" stroke-width="3" stroke-miterlimit="10"/>
<path d="M413.465 251.045H479.636C485.081 251.045 489.489 246.636 489.489 241.191V11.8532C489.489 6.40849 485.081 2 479.636 2H413.465C408.02 2 403.612 6.40849 403.612 11.8532V241.191C403.612 246.627 408.02 251.045 413.465 251.045Z" fill="#3C3C3B" stroke="black" stroke-width="3" stroke-miterlimit="10"/>
<path d="M490.043 210.534H512.559C516.924 210.534 520.463 206.995 520.463 202.63V50.4056C520.463 46.041 516.924 42.5019 512.559 42.5019H490.043C489.735 42.5019 489.489 42.7478 489.489 43.0551V209.981C489.498 210.288 489.744 210.534 490.043 210.534Z" fill="#3C3C3B" stroke="black" stroke-width="3" stroke-miterlimit="10"/>
<path d="M521.025 170.945H530.404C533.469 170.945 535.954 168.46 535.954 165.395V86.8678C535.954 83.8029 533.469 81.3177 530.404 81.3177H521.025C520.718 81.3177 520.472 81.5636 520.472 81.8709V170.401C520.472 170.699 520.718 170.945 521.025 170.945Z" fill="#3C3C3B" stroke="black" stroke-width="3" stroke-miterlimit="10"/>
<path d="M382.377 98.4423L374.394 155.7C374.394 155.7 367.351 177.988 350.455 175.178C333.559 172.359 326.753 162.04 328.632 151.01C330.511 139.98 339.899 88.8262 339.899 88.8262C339.899 88.8262 347.645 74.9772 362.188 77.7962C376.73 80.6152 382.14 89.7571 382.377 98.4423Z" fill="#FFD5B4" stroke="black" stroke-width="5" stroke-miterlimit="10"/>
<path d="M291.792 76.3296C294.26 72.7554 303.121 61.6288 317.137 63.0075C333.796 64.6497 338.257 76.3823 339.662 85.533L328.43 156.42C328.43 156.42 315.02 170.243 307.046 168.135C299.073 166.027 284.047 161.803 286.4 143.967C288.745 126.131 291.327 77.0058 291.792 76.3296Z" fill="#FFD5B4" stroke="black" stroke-width="5" stroke-miterlimit="10"/>
<path d="M290.976 74.9157C290.976 74.9157 284.521 52.1356 266.536 52.4517C248.542 52.7679 235.878 61.8395 234.781 75.6007C233.683 89.3619 232.743 143.186 232.743 143.186C232.743 143.186 234.306 164.903 251.826 168.355C269.346 171.815 283.739 163.05 285.303 155.7C286.866 148.341 290.976 74.9157 290.976 74.9157Z" fill="#FFD5B4" stroke="black" stroke-width="5" stroke-miterlimit="10"/>
<path d="M233.683 72.7817C233.683 72.7817 231.804 57.1412 210.06 55.5693C188.316 53.9973 178.928 73.8707 178.77 86.2267C178.612 98.5828 177.049 145.364 177.049 145.364C177.049 145.364 182.37 165.079 200.988 164.921C219.606 164.763 229.617 161.013 230.864 144.117C232.12 127.22 233.683 72.7817 233.683 72.7817Z" fill="#FFD5B4" stroke="black" stroke-width="5" stroke-miterlimit="10"/>
<path d="M279.831 216.005C279.831 216.005 260.116 189.493 240.875 190.195C221.634 190.898 193.708 203.807 187.604 212.018C187.604 212.018 213.888 175.591 213.063 166.967C212.238 158.343 203.851 152.363 203.851 152.363C203.851 152.363 231.075 165.272 233.709 164.921C236.352 164.57 271.155 167.916 275.915 148.2C280.675 128.485 282.633 125.754 277.864 121.837C273.096 117.92 254.004 114.25 250.641 111.747C247.277 109.244 210.824 94.5344 208.093 94.148C205.361 93.7616 189.238 90.6265 179.622 102.201C169.997 113.775 155.612 145.768 155.138 147.173C154.664 148.578 140.042 178.225 140.042 178.225C140.042 178.225 134.799 192.54 145.127 206.854C155.454 221.169 168.987 233.999 168.987 233.999L207.785 275.256" fill="#FFD5B4"/>
<path d="M279.831 216.005C279.831 216.005 260.116 189.493 240.875 190.195C221.634 190.898 193.708 203.807 187.604 212.018C187.604 212.018 213.888 175.591 213.063 166.967C212.238 158.343 203.851 152.363 203.851 152.363C203.851 152.363 231.075 165.272 233.709 164.921C236.352 164.57 271.155 167.916 275.915 148.2C280.675 128.485 282.633 125.754 277.864 121.837C273.096 117.92 254.004 114.25 250.641 111.747C247.277 109.244 210.824 94.5344 208.093 94.148C205.361 93.7616 189.238 90.6265 179.622 102.201C169.997 113.775 155.612 145.768 155.138 147.173C154.664 148.578 140.042 178.225 140.042 178.225C140.042 178.225 134.799 192.54 145.127 206.854C155.454 221.169 168.987 233.999 168.987 233.999L207.785 275.256" stroke="black" stroke-width="5" stroke-miterlimit="10"/>
<path d="M209.972 391.054L232.208 405.93L238.425 374.412L234.877 354.837L225.612 323.934L223.715 302.866L214.424 281.579L211.474 274.799L209.972 391.054Z" fill="#878787" stroke="#1D1D1B" stroke-width="5" stroke-miterlimit="10"/>
<path d="M414.238 351.298L407.195 365.885L460.702 396.823H476.659L481.349 386.97L414.238 351.298Z" fill="#878787" stroke="#1D1D1B" stroke-width="5" stroke-miterlimit="10"/>
<path d="M374.517 274.764C367.474 279.454 342.139 281.922 342.139 281.922V303.885L347.302 305.861L367.018 311.841V300.109L374.526 293.303L372.181 285.092L374.517 274.764Z" fill="#878787" stroke="#1D1D1B" stroke-width="5" stroke-miterlimit="10"/>
<path d="M139.779 192.338L156.113 180.421L171.059 187.754L175.117 203.675L178.594 217.314L186.937 225.358L182.801 241.428L139.831 203.948L139.779 192.338Z" fill="#878787" stroke="#1D1D1B" stroke-width="5" stroke-miterlimit="10"/>
<path d="M198.301 212.624V198.072L221.766 194.788L241.007 189.159L253.679 195.262L269.636 200.891L278.549 221.072L256.024 217.788L247.11 207.46L227.395 227.175L211.438 215.443L198.301 212.624Z" fill="#878787" stroke="#1D1D1B" stroke-width="5" stroke-miterlimit="10"/>
<path d="M380.542 405.403C380.436 406.808 364.041 430.994 364.041 430.994L344.852 429.562L353.046 439.582L356.787 452.571L354.583 463.232L342.973 454.836L337.361 473.243L346.117 475.781L341.173 485.292L336.106 490.087L355.057 491.501L364.787 490.341L377.565 489.41L380.542 405.403Z" fill="#878787" stroke="#1D1D1B" stroke-width="5" stroke-miterlimit="10"/>
<path d="M203.596 477.046L207.478 495.294L235.439 506.614L254.004 500.862L262.206 505.595L275.291 502.812L285.952 505.578L307.213 505.727C307.213 505.727 337.994 504.937 340.356 505.876C342.718 506.816 353.704 507.712 352.747 503.242C351.799 498.763 344.009 477.388 344.009 477.388L327.824 480.831L314.845 480.716L299.248 486.916C299.248 486.916 299.468 487.953 297.527 487.285C295.586 486.618 288.218 482.429 288.218 482.429C288.218 482.429 274.466 487.153 272.402 487.593C270.338 488.032 261.495 481.999 261.495 481.999L243.931 490.772L206.564 472.453L203.596 477.046Z" fill="#878787" stroke="#1D1D1B" stroke-width="5" stroke-miterlimit="10"/>
<path d="M168.047 467.017L190.301 448.399L198.476 455.451L205.827 496.506L168.047 467.017Z" fill="#878787" stroke="#1D1D1B" stroke-width="5" stroke-miterlimit="10"/>
<path d="M333.383 343.79L328.334 362.565L370.926 366.789L367.167 357.402L355.434 350.13L352.624 335.816L336.668 338.161L333.383 343.79Z" fill="#878787" stroke="#1D1D1B" stroke-width="5" stroke-miterlimit="10"/>
<path d="M179.754 396.823L211.201 410.435L223.399 425.926L216.356 440.004C216.356 440.004 212.132 447.986 210.727 448.452C209.322 448.917 194.77 422.642 192.891 420.763C191.021 418.883 179.754 396.823 179.754 396.823Z" fill="#878787" stroke="#1D1D1B" stroke-width="5" stroke-miterlimit="10"/>
<path d="M93.419 373.999L95.6321 373.279L117.279 366.254L123.954 380.234L136.661 374.175L137.855 388.674L144.161 399.704C144.161 399.704 117.534 409.285 114.996 410.497C112.458 411.709 86.1389 427.384 86.1389 427.384L95.3072 408.45L109.49 402.207L102.218 397.877L94.7715 392.072L94.7979 401.943L87.4913 376.827L93.419 373.999Z" fill="#878787" stroke="#1D1D1B" stroke-width="5" stroke-miterlimit="10"/>
<path d="M138.865 283.054L124.972 293.47C124.972 293.47 141.113 335.333 140.832 337.309C140.551 339.276 151.792 333.928 151.792 333.928L150.08 323.916L163.358 320.412L161.672 308.776L144.969 291.977L133.052 293.294L138.865 283.054Z" fill="#878787" stroke="#1D1D1B" stroke-width="5" stroke-miterlimit="10"/>
<path d="M300.126 303.859C300.126 303.859 302.664 310.076 300.724 311.473C298.783 312.869 284.266 324.997 284.266 324.997L229.028 273.421L231.821 258.053L247.988 264.806L254.601 254.285L277.179 254.171L284.609 257.903L285.408 247.418L290.642 241.121L315.916 270.444L309.69 282.615L316.206 288.701L313.343 292.451L312.061 303.455L303.481 295.446L300.126 303.859Z" fill="#878787" stroke="#1D1D1B" stroke-width="5" stroke-miterlimit="10"/>
<path d="M281.737 389.183C281.737 389.183 278.391 403.735 282.791 404.674C287.191 405.614 325.673 404.674 325.673 404.674L328.018 398.106L333.647 389.192C333.647 389.192 318.156 390.597 314.871 389.192C311.596 387.778 281.737 389.183 281.737 389.183Z" fill="#878787" stroke="#1D1D1B" stroke-width="5" stroke-miterlimit="10"/>
<path d="M380.621 233.911L342.139 257.965L369.828 268.169L377.802 266.299L374.992 257.965L380.621 251.045V233.911Z" fill="#878787" stroke="#1D1D1B" stroke-width="5" stroke-miterlimit="10"/>
<path d="M290.976 165.053L294.48 138.971C294.48 138.971 321.826 145.381 323.1 146.391C324.382 147.401 311.832 167.951 311.832 167.951L290.976 165.053Z" fill="#878787" stroke="#1D1D1B" stroke-width="5" stroke-miterlimit="10"/>
<path d="M444.096 315.626L431.67 320.035C428.429 325.901 424.477 332.382 424.477 332.382L403.612 329.484L407.116 303.402C407.116 303.402 412.297 304.614 418.242 306.072L415.309 297.931C415.309 297.931 442.524 290.993 444.122 291.301C445.729 291.608 444.096 315.626 444.096 315.626Z" fill="#878787" stroke="#1D1D1B" stroke-width="5" stroke-miterlimit="10"/>
<path d="M210.569 157.14L218.78 160.837C218.78 160.837 218.956 161.127 213.502 162.462L210.428 157.14" fill="#FFB46F"/>
</svg>
