<?xml version="1.0" encoding="UTF-8"?>
<svg id="_Шар_1" data-name="Шар 1" xmlns="http://www.w3.org/2000/svg" viewBox="0 0 1920 1080">
  <defs>
    <style>
      .cls-1, .cls-2, .cls-3, .cls-4, .cls-5, .cls-6, .cls-7 {
        stroke-miterlimit: 10;
      }

      .cls-1, .cls-3, .cls-4, .cls-5, .cls-7 {
        stroke: #000;
      }

      .cls-1, .cls-3, .cls-4, .cls-7 {
        stroke-width: 3px;
      }

      .cls-1, .cls-6 {
        fill: #878787;
      }

      .cls-2 {
        fill: #dfdfdf;
        font-family: OdibeeSans-Regular, 'Odibee Sans';
        font-size: 107px;
      }

      .cls-2, .cls-6 {
        stroke: #1d1d1b;
      }

      .cls-3 {
        fill: #706f6f;
      }

      .cls-8 {
        fill: #ffb46f;
        stroke-width: 0px;
      }

      .cls-9 {
        letter-spacing: -.05em;
      }

      .cls-4 {
        fill: #575756;
      }

      .cls-10 {
        letter-spacing: 0em;
      }

      .cls-5 {
        fill: #ffd5b4;
      }

      .cls-5, .cls-6 {
        stroke-width: 5px;
      }

      .cls-11 {
        letter-spacing: -.03em;
      }

      .cls-12 {
        letter-spacing: -.04em;
      }

      .cls-13 {
        letter-spacing: -.02em;
      }

      .cls-14 {
        letter-spacing: -.04em;
      }

      .cls-7 {
        fill: #3c3c3b;
      }
    </style>
  </defs>
  <text class="cls-2" transform="translate(651.02 746.6)"><tspan class="cls-11" x="0" y="0">StoneB</tspan><tspan class="cls-14" x="234.22" y="0">r</tspan><tspan class="cls-11" x="268.68" y="0">e</tspan><tspan class="cls-10" x="304.2" y="0">a</tspan><tspan class="cls-9" x="341.86" y="0">k</tspan><tspan class="cls-11" x="375.25" y="0">e</tspan><tspan class="cls-13" x="410.77" y="0">r</tspan><tspan x="447.37" y="0" xml:space="preserve"> G</tspan><tspan class="cls-12" x="515.31" y="0">y</tspan><tspan x="549.77" y="0">m</tspan></text>
  <g>
    <g>
      <path class="cls-5" d="m892.37,640.04c4.49,1.32,9.04,2.43,13.54,3.7,7.99,2.26,15.87,4.67,24,6.41,15.38,3.28,30.82,4.4,46.52,4.41,14.95,0,30.09.24,45.02-.69,12.62-.78,23.74-4.28,35.48-8.13l-.22-3.65,9.03-10.16c16.68-17.43,18.93-75.1,18.93-75.1v-62.44l-6.14-27.08-217.91-49.02-29.34,92.15s47.39,109.83,55.77,119.74c2.36,2.79,4.08,6.29,5.33,9.87Z"/>
      <path class="cls-8" d="m1083.01,509.75l-12.52-1.07s-11.03,25.08-25.33,23.32c-14.29-1.76-27.08-7.94-28.84-11.62,0,0-13.54,5.72-20,5.16-6.46-.56-19.62-3.89-20.56-7.02,0,0-12.79,7.21-28.15,5.52-15.36-1.69-27.14-4.14-27.08-6.08,0,0-11.97,8.9-16.74,7.9,0,0-27.4,33.79-29.03,35.29-1.63,1.5-.44-34.86-.44-34.86l8.71-28.9,45.58,1.19,24.89.94,108.79-6.39,20.71,2.6v14.01Z"/>
      <g>
        <rect class="cls-1" x="782.37" y="444.23" width="342.29" height="57.55"/>
        <rect class="cls-3" x="782.37" y="449.25" width="342.29" height="47.52"/>
        <rect class="cls-4" x="782.37" y="456.17" width="342.29" height="33.67"/>
        <rect class="cls-7" x="782.37" y="464.04" width="342.29" height="17.93"/>
        <rect class="cls-7" x="782.37" y="469.31" width="342.29" height="7.4"/>
        <g>
          <g>
            <rect class="cls-7" x="718.42" y="340.33" width="91.78" height="266.14" rx="10.53" ry="10.53"/>
            <path class="cls-7" d="m693.77,383.62h24.06c.33,0,.59.26.59.59v178.38c0,.33-.26.59-.59.59h-24.06c-4.66,0-8.45-3.79-8.45-8.45v-162.67c0-4.66,3.79-8.45,8.45-8.45Z"/>
            <path class="cls-7" d="m674.71,425.09h10.03c.33,0,.59.26.59.59v94.61c0,.33-.26.59-.59.59h-10.03c-3.28,0-5.93-2.66-5.93-5.93v-83.92c0-3.28,2.66-5.93,5.93-5.93Z"/>
          </g>
          <g>
            <rect class="cls-7" x="1097.95" y="339.92" width="91.78" height="266.14" rx="10.53" ry="10.53" transform="translate(2287.67 945.97) rotate(180)"/>
            <path class="cls-7" d="m1198.17,383.2h24.06c.33,0,.59.26.59.59v178.38c0,.33-.26.59-.59.59h-24.06c-4.66,0-8.45-3.79-8.45-8.45v-162.67c0-4.66,3.79-8.45,8.45-8.45Z" transform="translate(2412.55 945.97) rotate(180)"/>
            <path class="cls-7" d="m1228.76,424.67h10.03c.33,0,.59.26.59.59v94.61c0,.33-.26.59-.59.59h-10.03c-3.28,0-5.93-2.66-5.93-5.93v-83.92c0-3.28,2.66-5.93,5.93-5.93Z" transform="translate(2462.2 945.14) rotate(180)"/>
          </g>
        </g>
      </g>
      <g>
        <path class="cls-5" d="m1075.25,442.98l-8.53,61.19s-7.52,23.82-25.58,20.81c-18.05-3.01-25.33-14.04-23.32-25.83s12.04-66.45,12.04-66.45c0,0,8.28-14.79,23.82-11.79,15.55,3.01,21.31,12.79,21.57,22.07Z"/>
        <path class="cls-5" d="m978.46,419.35c2.64-3.82,12.11-15.71,27.08-14.24,17.8,1.76,22.57,14.29,24.07,24.07l-12,75.75s-14.33,14.77-22.85,12.51-24.57-6.77-22.07-25.83c2.51-19.06,5.27-71.55,5.77-72.27Z"/>
        <path class="cls-5" d="m977.58,417.84s-6.9-24.34-26.12-24.01c-19.22.33-32.77,10.03-33.94,24.74-1.17,14.71-2.17,72.22-2.17,72.22,0,0,1.67,23.2,20.4,26.9,18.72,3.69,34.1-5.67,35.78-13.52,1.67-7.86,6.06-86.32,6.06-86.32Z"/>
        <path class="cls-5" d="m916.36,415.56s-2.01-16.72-25.24-18.39c-23.24-1.67-33.27,19.56-33.43,32.77-.17,13.21-1.84,63.19-1.84,63.19,0,0,5.68,21.06,25.58,20.9,19.89-.17,30.59-4.18,31.93-22.23,1.34-18.05,3.01-76.23,3.01-76.23Z"/>
      </g>
      <path class="cls-5" d="m965.67,568.61s-21.06-28.34-41.63-27.58c-20.56.75-50.4,14.54-56.92,23.32,0,0,28.09-38.93,27.21-48.15-.88-9.22-9.84-15.61-9.84-15.61,0,0,29.09,13.79,31.91,13.42,2.82-.38,40.02,3.2,45.11-17.87,5.09-21.06,7.18-23.99,2.08-28.17-5.1-4.18-25.49-8.11-29.09-10.78-3.59-2.67-42.55-18.39-45.47-18.81-2.93-.42-20.14-3.76-30.43,8.61-10.28,12.37-25.66,46.56-26.16,48.06-.5,1.5-16.13,33.18-16.13,33.18,0,0-5.6,15.3,5.43,30.59,11.03,15.3,25.49,29,25.49,29l41.46,44.09"/>
    </g>
    <g>
      <path class="cls-6" d="m896.93,641.32l-1.15-2.63-3.16-7.24-.11,8.63c1.47.43,2.94.84,4.42,1.24Z"/>
      <path class="cls-6" d="m1060.41,644.59c1.39-.46,2.79-.88,4.2-1.29l-.25-.87,2.51-11.03c-7.52,5.02-34.6,7.65-34.6,7.65v13.47c9.58-1.75,18.6-4.8,28.15-7.93Z"/>
      <polygon class="cls-6" points="816.01 543.32 833.47 530.59 849.44 538.43 853.77 555.44 857.49 570.02 866.41 578.61 861.99 595.78 816.07 555.73 816.01 543.32"/>
      <polygon class="cls-6" points="878.55 565 878.55 549.46 903.62 545.94 924.19 539.93 937.73 546.45 954.78 552.46 964.31 574.03 940.23 570.52 930.71 559.49 909.64 580.55 892.59 568.01 878.55 565"/>
      <path class="cls-6" d="m976.43,654.56c4.68,0,9.39.02,14.1.03l.43-1.09,1.16,1.09c2.96,0,5.92-.02,8.88-.05l.49-4.24,3.06-4.01-6.97-6.5,6.65-13-27.01-31.33-5.6,6.73-.86,11.21-7.94-3.99-24.12.12-7.07,11.24-17.28-7.21-2.98,16.42,22.43,20.94c14.09,2.68,28.25,3.64,42.63,3.65Z"/>
      <polygon class="cls-6" points="1073.38 587.75 1032.26 613.45 1061.84 624.36 1070.37 622.36 1067.36 613.45 1073.38 606.06 1073.38 587.75"/>
    </g>
    <path class="cls-8" d="m891.66,505.71l8.78,3.95s.19.31-5.64,1.73l-3.28-5.68"/>
  </g>
</svg>