<?xml version="1.0" encoding="UTF-8"?>
<svg id="_Шар_1" data-name="Шар 1" xmlns="http://www.w3.org/2000/svg" viewBox="0 0 270.11 149.83">
  <defs>
    <style>
      .cls-1 {
        fill: #5e5e5e;
      }

      .cls-1, .cls-2, .cls-3, .cls-4, .cls-5, .cls-6, .cls-7, .cls-8, .cls-9 {
        stroke-miterlimit: 10;
      }

      .cls-1, .cls-2, .cls-6 {
        stroke: #1d1d1b;
      }

      .cls-1, .cls-4, .cls-6, .cls-9 {
        stroke-width: 1.77px;
      }

      .cls-10, .cls-11 {
        stroke-width: 0px;
      }

      .cls-2 {
        fill: #dfdfdf;
        stroke-width: .5px;
      }

      .cls-3, .cls-4, .cls-5, .cls-7, .cls-8, .cls-9 {
        stroke: #000;
      }

      .cls-3, .cls-5, .cls-7, .cls-8 {
        stroke-width: 1.06px;
      }

      .cls-3, .cls-6 {
        fill: #878787;
      }

      .cls-4 {
        fill: none;
      }

      .cls-11, .cls-9 {
        fill: #fff;
      }

      .cls-5 {
        fill: #706f6f;
      }

      .cls-7 {
        fill: #3c3c3b;
      }

      .cls-8 {
        fill: #575756;
      }
    </style>
  </defs>
  <g id="_знак" data-name="знак">
    <path class="cls-9" d="m104.06,103.13c1.5.5,3.1.8,4.6,1.3,2.7.8,5.4,1.6,8.2,2.2,5.3,1.1,10.5,1.5,15.9,1.5,5.1,0,10.3.1,15.4-.2,4.3-.3,8.1-1.5,12.1-2.8l-.1-1.2,3.1-3.5c5.7-6,6.5-25.7,6.5-25.7v-21.4l-2.1-9.3-74.4-16.7-10,31.5s16.2,37.5,19.1,40.9c.7.9,1.3,2.1,1.7,3.4Z"/>
    <path class="cls-10" d="m167.96,59.03l-4.2-.4s-3.7,9.6-8.5,8.9-9.1-3-9.7-4.4c0,0-4.5,2.2-6.7,2s-6.6-1.5-6.9-2.7c0,0-4.3,2.8-9.4,2.1-5.2-.6-9.1-1.6-9.1-2.3,0,0-4,3.4-5.6,3,0,0-9.2,12.9-9.7,13.5s-.1-13.3-.1-13.3l2.9-11.1,15.3.5,8.3.4,36.5-2.4,6.9,1v5.2h0Z"/>
    <path class="cls-3" d="m183.46,36.13h-117v19.7h117v-19.7Z"/>
    <path class="cls-5" d="m183.46,37.93h-117v16.2h117v-16.2Z"/>
    <path class="cls-8" d="m183.46,40.23h-117v11.5h117v-11.5Z"/>
    <path class="cls-7" d="m183.46,42.93h-117v6.1h117v-6.1Z"/>
    <path class="cls-7" d="m183.46,44.73h-117v2.5h117v-2.5Z"/>
    <path class="cls-7" d="m72.36,91.63h-24.1c-2,0-3.6-1.6-3.6-3.6V4.23c0-2,1.6-3.6,3.6-3.6h24.2c2,0,3.6,1.6,3.6,3.6v83.8c-.1,2-1.7,3.6-3.7,3.6Z"/>
    <path class="cls-7" d="m44.46,76.83h-8.2c-1.6,0-2.9-1.3-2.9-2.9V18.33c0-1.6,1.3-2.9,2.9-2.9h8.2c.1,0,.2.1.2.2v61c0,.1-.1.2-.2.2Z"/>
    <path class="cls-7" d="m33.16,62.33h-3.5c-1.1,0-2-.9-2-2v-28.7c0-1.1.9-2,2-2h3.4c.1,0,.2.1.2.2v32.3c.1.2,0,.2-.1.2Z"/>
    <path class="cls-7" d="m177.96,91.43h24.2c2,0,3.6-1.6,3.6-3.6V4.13c0-2-1.6-3.6-3.6-3.6h-24.2c-2,0-3.6,1.6-3.6,3.6v83.8c0,1.9,1.6,3.5,3.6,3.5Z"/>
    <path class="cls-7" d="m205.86,76.73h8.2c1.6,0,2.9-1.3,2.9-2.9V18.23c0-1.6-1.3-2.9-2.9-2.9h-8.2c-.1,0-.2.1-.2.2v61c0,.1.1.2.2.2Z"/>
    <path class="cls-7" d="m217.16,62.23h3.4c1.1,0,2-.9,2-2v-28.7c0-1.1-.9-2-2-2h-3.4c-.1,0-.2.1-.2.2v32.3c0,.1.1.2.2.2Z"/>
    <path class="cls-9" d="m166.56,35.73l-2.9,20.9s-2.6,8.1-8.7,7.1c-6.2-1-8.7-4.8-8-8.8s4.1-22.7,4.1-22.7c0,0,2.8-5.1,8.1-4,5.4,1,7.3,4.3,7.4,7.5Z"/>
    <path class="cls-9" d="m133.46,27.63c.9-1.3,4.1-5.4,9.3-4.9,6.1.6,7.7,4.9,8.2,8.2l-4.1,25.9s-4.9,5-7.8,4.3c-2.9-.8-8.4-2.3-7.5-8.8.8-6.5,1.8-24.4,1.9-24.7Z"/>
    <path class="cls-9" d="m133.16,27.13s-2.4-8.3-8.9-8.2c-6.6.1-11.2,3.5-11.6,8.5-.4,5-.7,24.7-.7,24.7,0,0,.6,7.9,7,9.2s11.7-1.9,12.2-4.6c.5-2.8,2-29.6,2-29.6Z"/>
    <path class="cls-9" d="m112.26,26.33s-.7-5.7-8.6-6.3c-8-.5-11.4,6.7-11.4,11.3-.1,4.5-.6,21.6-.6,21.6,0,0,1.9,7.2,8.7,7.1,6.8-.1,10.5-1.4,10.9-7.6.4-6.2,1-26.1,1-26.1Z"/>
    <path class="cls-11" d="m129.16,78.73s-7.2-9.7-14.2-9.4c-7,.3-17.2,5-19.5,8,0,0,9.6-13.3,9.3-16.5-.3-3.2-3.4-5.3-3.4-5.3,0,0,9.9,4.7,10.9,4.6,1-.1,13.7,1.1,15.4-6.1,1.7-7.2,2.5-8.2.7-9.6-1.7-1.4-8.7-2.8-9.9-3.7-1.2-.9-14.5-6.3-15.5-6.4-1-.1-6.9-1.3-10.4,2.9s-8.8,15.9-8.9,16.4c-.2.5-5.5,11.3-5.5,11.3,0,0-1.9,5.2,1.9,10.5,3.6,5.1,8.6,9.8,8.6,9.8l14.2,15.1"/>
    <path class="cls-4" d="m129.16,78.73s-7.2-9.7-14.2-9.4c-7,.3-17.2,5-19.5,8,0,0,9.6-13.3,9.3-16.5-.3-3.2-3.4-5.3-3.4-5.3,0,0,9.9,4.7,10.9,4.6,1-.1,13.7,1.1,15.4-6.1,1.7-7.2,2.5-8.2.7-9.6-1.7-1.4-8.7-2.8-9.9-3.7-1.2-.9-14.5-6.3-15.5-6.4-1-.1-6.9-1.3-10.4,2.9s-8.8,15.9-8.9,16.4c-.2.5-5.5,11.3-5.5,11.3,0,0-1.9,5.2,1.9,10.5,3.6,5.1,8.6,9.8,8.6,9.8l14.2,15.1"/>
    <path class="cls-6" d="m105.66,103.53l-.4-.9-1.1-2.5v2.9c.5.2,1,.4,1.5.5Z"/>
    <path class="cls-1" d="m161.46,104.63c.5-.2,1-.3,1.4-.4l-.1-.3.9-3.8c-2.6,1.7-11.8,2.6-11.8,2.6v4.6c3.3-.6,6.4-1.6,9.6-2.7Z"/>
    <path class="cls-1" d="m77.96,70.03l6-4.4,5.5,2.7,1.5,5.8,1.3,5,3,2.9-1.6,5.9-15.7-13.6v-4.3Z"/>
    <path class="cls-1" d="m99.36,77.43v-5.3l8.6-1.2,7-2.1,4.6,2.2,5.8,2.1,3.3,7.4-8.2-1.2-3.3-3.8-7.2,7.2-5.8-4.3-4.8-1Z"/>
    <path class="cls-1" d="m132.76,108.03h4.8l.1-.4.4.4h3l.2-1.4,1-1.4-2.4-2.2,2.3-4.4-9.2-10.7-1.9,2.3-.3,3.8-2.7-1.4h-8.2l-2.4,3.9-5.9-2.5-1,5.6,7.7,7.2c4.8.9,9.6,1.2,14.5,1.2Z"/>
    <path class="cls-1" d="m165.96,85.23l-14.1,8.8,10.1,3.7,2.9-.7-1-3,2.1-2.5v-6.3Z"/>
    <path class="cls-11" d="m103.86,57.23l3,1.06s.1.08-1.9.49l-1.1-1.54"/>
  </g>
  <g>
    <path class="cls-2" d="m3.51,138.26c-.91,0-1.67-.32-2.31-.95-.63-.63-.95-1.4-.95-2.31v-7.02l4.21.95v3.49c0,.45.16.84.48,1.15.32.32.69.47,1.11.47h5.16c.45,0,.84-.16,1.15-.47.32-.32.48-.7.48-1.15v-7.97c0-.45-.16-.84-.48-1.15s-.7-.48-1.15-.48H3.51c-.91,0-1.67-.32-2.31-.95-.63-.63-.95-1.4-.95-2.31v-9.73c0-.91.32-1.68.95-2.31.63-.63,1.4-.95,2.31-.95h10.28c.91,0,1.68.32,2.31.95.63.63.95,1.4.95,2.31v4.89l-4.21-1v-1.31c0-.45-.16-.84-.48-1.15s-.7-.48-1.15-.48h-5.16c-.42,0-.79.16-1.11.48-.32.32-.48.7-.48,1.15v4.57c0,.45.16.84.48,1.15.32.32.69.47,1.11.47h7.74c.91,0,1.68.32,2.31.95.63.63.95,1.4.95,2.31v13.13c0,.91-.32,1.67-.95,2.31-.63.63-1.4.95-2.31.95H3.51Z"/>
    <path class="cls-2" d="m20.21,138.26v-32.95l4.25-.95v11.27h5.39l-1,4.26h-4.39v18.38h-4.25Z"/>
    <path class="cls-2" d="m34.43,138.26c-.94,0-1.72-.32-2.35-.97-.63-.65-.95-1.43-.95-2.33v-16.02c0-.91.32-1.68.95-2.33.63-.65,1.42-.97,2.35-.97h6.16c.91,0,1.68.33,2.31.97.63.65.95,1.43.95,2.33v16.02c0,.91-.32,1.68-.95,2.33-.63.65-1.4.97-2.31.97h-6.16Zm2.58-4.25h.95c.45,0,.84-.16,1.18-.48.33-.32.5-.7.5-1.15v-10.86c0-.45-.17-.84-.5-1.15-.33-.32-.72-.47-1.18-.47h-.95c-.45,0-.84.16-1.15.47-.32.32-.48.7-.48,1.15v10.86c0,.45.16.84.48,1.15.32.32.7.48,1.15.48Z"/>
    <path class="cls-2" d="m46.78,138.26v-22.63h9.46c.87,0,1.64.32,2.31.95.66.63,1,1.4,1,2.31v19.37h-4.25v-16.75c0-.48-.17-.87-.5-1.18-.33-.3-.71-.45-1.13-.45h-2.63v18.38h-4.25Z"/>
    <path class="cls-2" d="m65.75,138.26c-.91,0-1.68-.32-2.33-.97-.65-.65-.97-1.43-.97-2.33v-16.07c0-.91.32-1.68.97-2.31.65-.63,1.43-.95,2.33-.95h6.16c.93,0,1.72.32,2.35.95.63.63.95,1.4.95,2.31v6.88c0,.9-.32,1.68-.95,2.33-.63.65-1.42.97-2.35.97h-5.21v3.3c0,.45.16.84.48,1.15.32.32.72.48,1.2.48h5.88l.95,4.25h-9.46Zm.95-13.44h2.63c.45,0,.84-.16,1.15-.48.32-.32.48-.7.48-1.15v-1.67c0-.45-.16-.84-.48-1.15-.32-.32-.7-.47-1.15-.47h-.95c-.48,0-.88.16-1.2.47-.32.32-.48.7-.48,1.15v3.3Z"/>
    <path class="cls-2" d="m78.38,138.26v-31.73h11.5c.94,0,1.72.32,2.35.97.63.65.95,1.41.95,2.29v9.01c.6.21,1.1.6,1.49,1.18.39.57.59,1.19.59,1.86v13.13c0,.94-.32,1.72-.95,2.35-.63.63-1.4.95-2.31.95h-13.63Zm4.26-19.65h4.66c.45,0,.84-.17,1.18-.5.33-.33.5-.71.5-1.13v-4.62c0-.45-.17-.84-.5-1.15-.33-.32-.72-.48-1.18-.48h-4.66v7.88Zm0,15.44h6.84c.42,0,.79-.16,1.11-.47.32-.32.48-.72.48-1.2v-7.97c0-.42-.16-.8-.48-1.13-.32-.33-.69-.5-1.11-.5h-6.84v11.27Z"/>
    <path class="cls-2" d="m98.43,138.26v-22.63h9.46c.9,0,1.68.33,2.33.97.65.65.97,1.43.97,2.33v4.93l-4.25-.95v-1.36c0-.45-.16-.84-.48-1.18-.32-.33-.7-.5-1.15-.5h-2.63v18.38h-4.25Z"/>
    <path class="cls-2" d="m113.91,138.26v-22.63h9.46c.9,0,1.68.33,2.33.97.65.65.97,1.43.97,2.33v4.93l-4.25-.95v-1.36c0-.45-.16-.84-.48-1.18-.32-.33-.7-.5-1.15-.5h-2.63v18.38h-4.25Z"/>
    <path class="cls-2" d="m131.79,138.26c-.91,0-1.68-.32-2.33-.97-.65-.65-.97-1.43-.97-2.33v-16.07c0-.91.32-1.68.97-2.31.65-.63,1.43-.95,2.33-.95h6.16c.93,0,1.72.32,2.35.95.63.63.95,1.4.95,2.31v6.88c0,.9-.32,1.68-.95,2.33-.63.65-1.42.97-2.35.97h-5.21v3.3c0,.45.16.84.48,1.15.32.32.72.48,1.2.48h5.88l.95,4.25h-9.46Zm.95-13.44h2.63c.45,0,.84-.16,1.15-.48s.47-.7.47-1.15v-1.67c0-.45-.16-.84-.47-1.15-.32-.32-.7-.47-1.15-.47h-.95c-.48,0-.88.16-1.2.47-.32.32-.48.7-.48,1.15v3.3Z"/>
    <path class="cls-2" d="m146.82,138.26c-.91,0-1.68-.32-2.33-.95-.65-.63-.97-1.42-.97-2.35v-6.83c0-.91.32-1.68.97-2.33s1.43-.97,2.33-.97h3.53c.48,0,.88-.16,1.2-.48s.47-.7.47-1.15v-1.67c0-.45-.16-.84-.47-1.15-.32-.32-.72-.47-1.2-.47h-4.89l.95-4.26h6.56c.91,0,1.68.33,2.33.97.65.65.97,1.43.97,2.33v19.33h-9.46Zm2.58-4.25h2.62v-4.93h-2.62c-.45,0-.84.16-1.15.48s-.48.7-.48,1.15v1.67c0,.45.16.84.48,1.15s.7.48,1.15.48Z"/>
    <path class="cls-2" d="m159.45,138.26v-33l4.25-1v22.68l4.25-11.32h4.26l-4.26,11.32,4.26,11.32h-4.26l-2.13-5.7-2.13,5.7h-4.25Z"/>
    <path class="cls-2" d="m176.88,138.26c-.91,0-1.68-.32-2.33-.97-.65-.65-.97-1.43-.97-2.33v-16.07c0-.91.32-1.68.97-2.31.65-.63,1.43-.95,2.33-.95h6.16c.93,0,1.72.32,2.35.95.63.63.95,1.4.95,2.31v6.88c0,.9-.32,1.68-.95,2.33-.63.65-1.42.97-2.35.97h-5.21v3.3c0,.45.16.84.48,1.15s.72.48,1.2.48h5.88l.95,4.25h-9.46Zm.95-13.44h2.63c.45,0,.84-.16,1.15-.48s.47-.7.47-1.15v-1.67c0-.45-.16-.84-.47-1.15-.32-.32-.7-.47-1.15-.47h-.95c-.48,0-.88.16-1.2.47-.32.32-.48.7-.48,1.15v3.3Z"/>
    <path class="cls-2" d="m188.6,138.26v-22.63h9.46c.91,0,1.68.33,2.33.97.65.65.97,1.43.97,2.33v4.93l-4.26-.95v-1.36c0-.45-.16-.84-.47-1.18-.32-.33-.7-.5-1.15-.5h-2.63v18.38h-4.25Z"/>
    <path class="cls-2" d="m214.68,138.26c-.91,0-1.67-.32-2.31-.95-.63-.63-.95-1.4-.95-2.31v-25.21c0-.87.32-1.63.95-2.26s1.4-.95,2.31-.95h10.28c.91,0,1.67.32,2.31.95s.95,1.39.95,2.26v7.06l-4.21-.95v-3.53c0-.45-.16-.84-.47-1.15-.32-.32-.7-.48-1.15-.48h-5.12c-.45,0-.84.16-1.15.48s-.47.7-.47,1.15v20.05c0,.45.16.84.47,1.15.32.32.7.47,1.15.47h5.12c.45,0,.84-.16,1.15-.47.32-.32.47-.7.47-1.15v-4.39h-4.16l.95-4.21h7.42v11.18c0,.91-.32,1.67-.95,2.31-.63.63-1.4.95-2.31.95h-10.28Z"/>
    <path class="cls-2" d="m236.13,149.58c-.94,0-1.72-.32-2.35-.95-.63-.63-.95-1.42-.95-2.35v-4.93l4.25,1v1.36c0,.42.17.8.5,1.13s.71.5,1.13.5h1c.42,0,.8-.17,1.13-.5s.5-.71.5-1.13v-5.43h-5.2c-.94,0-1.72-.32-2.35-.95-.63-.63-.95-1.42-.95-2.35v-19.33h4.25v16.75c0,.42.17.8.5,1.13s.71.5,1.13.5h2.62v-18.38h4.26v30.65c0,.93-.32,1.72-.95,2.35-.63.63-1.4.95-2.31.95h-6.2Z"/>
    <path class="cls-2" d="m248.63,138.26v-22.63h17.97c.91,0,1.67.33,2.31.97.63.65.95,1.43.95,2.33v19.33h-4.21v-16.75c0-.45-.17-.84-.5-1.15-.33-.32-.72-.47-1.18-.47h-2.58v18.38h-4.25v-16.75c0-.45-.17-.84-.5-1.15-.33-.32-.72-.47-1.18-.47h-2.58v18.38h-4.25Z"/>
  </g>
</svg>